<svg width="216" height="46" viewBox="0 0 216 46" fill="none" xmlns="http://www.w3.org/2000/svg">
<path d="M25.2053 6.92V12.4H13.7653V18.32H22.3253V23.64H13.7653V35H6.92531V6.92H25.2053ZM27.4403 23.8C27.4403 21.5067 27.867 19.4933 28.7203 17.76C29.6003 16.0267 30.787 14.6933 32.2803 13.76C33.7736 12.8267 35.4403 12.36 37.2803 12.36C38.8536 12.36 40.227 12.68 41.4003 13.32C42.6003 13.96 43.5203 14.8 44.1603 15.84V12.68H51.0003V35H44.1603V31.84C43.4936 32.88 42.5603 33.72 41.3603 34.36C40.187 35 38.8136 35.32 37.2403 35.32C35.427 35.32 33.7736 34.8533 32.2803 33.92C30.787 32.96 29.6003 31.6133 28.7203 29.88C27.867 28.12 27.4403 26.0933 27.4403 23.8ZM44.1603 23.84C44.1603 22.1333 43.6803 20.7867 42.7203 19.8C41.787 18.8133 40.6403 18.32 39.2803 18.32C37.9203 18.32 36.7603 18.8133 35.8003 19.8C34.867 20.76 34.4003 22.0933 34.4003 23.8C34.4003 25.5067 34.867 26.8667 35.8003 27.88C36.7603 28.8667 37.9203 29.36 39.2803 29.36C40.6403 29.36 41.787 28.8667 42.7203 27.88C43.6803 26.8933 44.1603 25.5467 44.1603 23.84ZM68.3888 29.2V35H64.9088C62.4288 35 60.4954 34.4 59.1088 33.2C57.7221 31.9733 57.0288 29.9867 57.0288 27.24V18.36H54.3088V12.68H57.0288V7.24H63.8688V12.68H68.3488V18.36H63.8688V27.32C63.8688 27.9867 64.0288 28.4667 64.3488 28.76C64.6688 29.0533 65.2021 29.2 65.9488 29.2H68.3888ZM93.2387 23.48C93.2387 24.12 93.1988 24.7867 93.1188 25.48H77.6388C77.7454 26.8667 78.1854 27.9333 78.9588 28.68C79.7588 29.4 80.7321 29.76 81.8788 29.76C83.5854 29.76 84.7721 29.04 85.4388 27.6H92.7188C92.3454 29.0667 91.6654 30.3867 90.6788 31.56C89.7188 32.7333 88.5054 33.6533 87.0388 34.32C85.5721 34.9867 83.9321 35.32 82.1188 35.32C79.9321 35.32 77.9854 34.8533 76.2788 33.92C74.5721 32.9867 73.2388 31.6533 72.2788 29.92C71.3188 28.1867 70.8388 26.16 70.8388 23.84C70.8388 21.52 71.3054 19.4933 72.2388 17.76C73.1988 16.0267 74.5321 14.6933 76.2388 13.76C77.9454 12.8267 79.9054 12.36 82.1188 12.36C84.2788 12.36 86.1988 12.8133 87.8788 13.72C89.5588 14.6267 90.8654 15.92 91.7988 17.6C92.7588 19.28 93.2387 21.24 93.2387 23.48ZM86.2388 21.68C86.2388 20.5067 85.8388 19.5733 85.0388 18.88C84.2388 18.1867 83.2388 17.84 82.0388 17.84C80.8921 17.84 79.9188 18.1733 79.1188 18.84C78.3454 19.5067 77.8654 20.4533 77.6788 21.68H86.2388Z" fill="#FF8800"/>
<path d="M106.727 12.84C108.781 12.84 110.567 13.32 112.087 14.28C113.607 15.24 114.701 16.4533 115.367 17.92V13.16H118.167V35.56C118.167 37.56 117.727 39.3333 116.847 40.88C115.994 42.4267 114.794 43.6133 113.247 44.44C111.701 45.2933 109.941 45.72 107.967 45.72C105.167 45.72 102.834 45.0533 100.967 43.72C99.1272 42.3867 97.9805 40.5733 97.5272 38.28H100.287C100.767 39.8 101.674 41.0133 103.007 41.92C104.367 42.8267 106.021 43.28 107.967 43.28C109.381 43.28 110.647 42.9733 111.767 42.36C112.887 41.7733 113.767 40.8933 114.407 39.72C115.047 38.5467 115.367 37.16 115.367 35.56V30.16C114.674 31.6533 113.567 32.8933 112.047 33.88C110.554 34.84 108.781 35.32 106.727 35.32C104.727 35.32 102.927 34.8533 101.327 33.92C99.7539 32.9867 98.5139 31.6667 97.6072 29.96C96.7272 28.2533 96.2872 26.28 96.2872 24.04C96.2872 21.8 96.7272 19.84 97.6072 18.16C98.5139 16.4533 99.7539 15.1467 101.327 14.24C102.927 13.3067 104.727 12.84 106.727 12.84ZM115.367 24.08C115.367 22.32 115.007 20.7733 114.287 19.44C113.567 18.1067 112.581 17.08 111.327 16.36C110.101 15.64 108.741 15.28 107.247 15.28C105.701 15.28 104.314 15.6267 103.087 16.32C101.861 17.0133 100.887 18.0267 100.167 19.36C99.4739 20.6667 99.1272 22.2267 99.1272 24.04C99.1272 25.8267 99.4739 27.4 100.167 28.76C100.887 30.0933 101.861 31.12 103.087 31.84C104.314 32.5333 105.701 32.88 107.247 32.88C108.741 32.88 110.101 32.52 111.327 31.8C112.581 31.08 113.567 30.0533 114.287 28.72C115.007 27.3867 115.367 25.84 115.367 24.08ZM143.479 13.16V35H140.679V31.16C140.039 32.52 139.053 33.56 137.719 34.28C136.386 35 134.893 35.36 133.239 35.36C130.626 35.36 128.493 34.56 126.839 32.96C125.186 31.3333 124.359 28.9867 124.359 25.92V13.16H127.119V25.6C127.119 27.9733 127.706 29.7867 128.879 31.04C130.079 32.2933 131.706 32.92 133.759 32.92C135.866 32.92 137.546 32.2533 138.799 30.92C140.053 29.5867 140.679 27.6267 140.679 25.04V13.16H143.479ZM151.272 9.04C150.712 9.04 150.232 8.84 149.832 8.44C149.432 8.04 149.232 7.54667 149.232 6.96C149.232 6.37333 149.432 5.89333 149.832 5.52C150.232 5.12 150.712 4.92 151.272 4.92C151.832 4.92 152.312 5.12 152.712 5.52C153.112 5.89333 153.312 6.37333 153.312 6.96C153.312 7.54667 153.112 8.04 152.712 8.44C152.312 8.84 151.832 9.04 151.272 9.04ZM152.672 13.16V35H149.872V13.16H152.672ZM162.653 15.52V29.08C162.653 30.4133 162.906 31.3333 163.413 31.84C163.919 32.3467 164.813 32.6 166.092 32.6H168.653V35H165.653C163.679 35 162.213 34.5467 161.253 33.64C160.293 32.7067 159.813 31.1867 159.813 29.08V15.52H156.773V13.16H159.813V7.68H162.653V13.16H168.653V15.52H162.653ZM171.99 24.04C171.99 21.8 172.43 19.84 173.31 18.16C174.217 16.4533 175.457 15.1467 177.03 14.24C178.63 13.3067 180.43 12.84 182.43 12.84C184.51 12.84 186.297 13.32 187.79 14.28C189.31 15.24 190.404 16.4667 191.07 17.96V13.16H193.87V35H191.07V30.16C190.377 31.6533 189.27 32.8933 187.75 33.88C186.257 34.84 184.47 35.32 182.39 35.32C180.417 35.32 178.63 34.8533 177.03 33.92C175.457 32.9867 174.217 31.6667 173.31 29.96C172.43 28.2533 171.99 26.28 171.99 24.04ZM191.07 24.08C191.07 22.32 190.71 20.7733 189.99 19.44C189.27 18.1067 188.284 17.08 187.03 16.36C185.804 15.64 184.444 15.28 182.95 15.28C181.404 15.28 180.017 15.6267 178.79 16.32C177.564 17.0133 176.59 18.0267 175.87 19.36C175.177 20.6667 174.83 22.2267 174.83 24.04C174.83 25.8267 175.177 27.4 175.87 28.76C176.59 30.0933 177.564 31.12 178.79 31.84C180.017 32.5333 181.404 32.88 182.95 32.88C184.444 32.88 185.804 32.52 187.03 31.8C188.284 31.08 189.27 30.0533 189.99 28.72C190.71 27.3867 191.07 25.84 191.07 24.08ZM203.063 17.04C203.676 15.68 204.609 14.6267 205.863 13.88C207.143 13.1333 208.703 12.76 210.543 12.76V15.68H209.783C207.756 15.68 206.129 16.2267 204.903 17.32C203.676 18.4133 203.063 20.24 203.063 22.8V35H200.263V13.16H203.063V17.04Z" fill="black"/>
</svg>
