<svg width="314" height="314" viewBox="0 0 314 314" fill="none" xmlns="http://www.w3.org/2000/svg">
<g clip-path="url(#clip0_605_465)">
<path d="M64.6469 210.666C61.9139 207.934 57.4809 207.933 54.7479 210.665C52.0139 213.399 52.0139 217.831 54.7469 220.564L93.0289 258.847C94.3959 260.214 96.1869 260.898 97.9789 260.898C99.7699 260.898 101.562 260.214 102.928 258.848C105.662 256.114 105.662 251.682 102.929 248.949L64.6469 210.666Z" fill="#F27D07"/>
<path d="M103.849 191.187C101.117 188.454 96.684 188.454 93.95 191.186C91.216 193.92 91.216 198.352 93.949 201.085L112.51 219.647C113.877 221.014 115.668 221.698 117.46 221.698C119.251 221.698 121.043 221.014 122.409 219.648C125.143 216.914 125.143 212.482 122.41 209.749L103.849 191.187Z" fill="#F27D07"/>
<path d="M312.64 22.521C311.073 15.702 309.292 11.258 307.352 9.31998C304.784 6.75098 301.599 5.33598 298.385 5.33598C296.745 5.33598 295.154 5.69298 293.656 6.39598C292.093 7.12798 290.404 7.95098 288.629 8.83798L282.082 2.28998C279.35 -0.442021 274.917 -0.443021 272.183 2.28898C269.449 5.02198 269.449 9.45498 272.182 12.188L275.623 15.629C272.567 17.275 269.487 18.962 266.502 20.616L262.625 16.738C259.891 14.005 255.459 14.005 252.725 16.738C249.992 19.472 249.992 23.904 252.725 26.638L253.826 27.739C247.839 31.146 243.641 33.593 243.17 33.869C242.65 34.173 242.173 34.541 241.747 34.967C238.423 38.293 237.404 43.076 238.654 47.379L153.134 132.899C152.55 132.618 151.972 132.343 151.406 132.077C147.702 130.33 144.503 128.821 141.488 125.806C138.799 123.117 145.724 111.902 149.445 105.876C155.937 95.363 162.65 84.492 154.923 76.765C153.461 75.303 150.845 73.56 146.686 73.56C135.69 73.56 120.449 86.418 117.265 89.602C105.031 101.836 100.099 111.383 95.328 120.616C91.129 128.744 87.162 136.422 77.765 145.819C70.753 152.831 61.547 156.321 51.8 160.017C40.578 164.272 28.975 168.671 18.972 178.673C-24.304 221.95 17.815 264.071 33.67 279.928C49.388 295.645 70.494 313.687 94.394 313.686C108.64 313.685 122.277 307.272 134.925 294.623C144.926 284.621 149.326 273.018 153.581 261.796C157.276 252.049 160.767 242.843 167.778 235.832C174.563 229.046 179.874 226.554 186.022 223.668C192.41 220.67 199.65 217.272 208.109 208.814C228.976 187.946 227.533 177.743 222.647 172.857C220.026 170.236 216.534 168.908 212.268 168.908C207.444 168.908 202.162 170.606 196.568 172.405C191.014 174.19 185.27 176.038 180.494 176.038C177.341 176.037 175.145 175.249 173.379 173.481C172.184 172.286 171.358 171.283 170.798 170.362L266.209 74.951C267.371 75.29 268.584 75.472 269.823 75.472C273.165 75.472 276.293 74.186 278.632 71.849L311.268 39.212C314.314 36.163 314.7 31.483 312.64 22.521ZM247.407 58.425L255.17 66.189L170.96 150.399C170.081 147.426 168.282 144.225 164.945 140.889L164.944 140.888L247.407 58.425ZM180.493 190.039C180.494 190.039 180.493 190.039 180.493 190.039C187.465 190.039 194.578 187.752 200.853 185.733C204.465 184.572 208.181 183.377 210.838 183.017C208.953 186.665 204.287 192.835 198.208 198.914C191.482 205.64 186.194 208.121 180.072 210.994C173.661 214.004 166.394 217.414 157.876 225.932C148.739 235.07 144.545 246.133 140.488 256.832C136.585 267.125 132.899 276.848 125.022 284.724C114.956 294.791 104.936 299.685 94.39 299.686C75.631 299.686 57.375 283.836 43.568 270.029C33.015 259.476 20.311 245.444 15.696 230.48C11.138 215.703 15.447 201.995 28.869 188.573C36.746 180.696 46.469 177.01 56.761 173.107C67.46 169.05 78.525 164.855 87.662 155.718C98.598 144.781 103.257 135.763 107.764 127.041C112.24 118.379 116.467 110.196 127.161 99.501C131.353 95.309 138.551 90.527 143.254 88.523C141.827 91.562 139.276 95.693 137.53 98.52C130.582 109.772 121.064 125.183 131.586 135.705C136.324 140.442 141.162 142.725 145.431 144.738C149.051 146.446 152.178 147.921 155.044 150.788C158.3 154.044 157.988 155.306 156.956 159.487C155.586 165.036 153.516 173.421 163.476 183.382C167.895 187.798 173.619 190.038 180.493 190.039ZM269.73 60.95L253.085 44.304C260.997 39.737 283.494 26.87 297.447 20.099C298.465 23.067 299.671 28.149 299.887 30.793L269.73 60.95Z" fill="#F27D07"/>
</g>
<defs>
<clipPath id="clip0_605_465">
<rect width="313.926" height="313.926" fill="white"/>
</clipPath>
</defs>
</svg>
