<?xml version="1.0" encoding="iso-8859-1"?>
<!-- Generator: Adobe Illustrator 19.0.0, SVG Export Plug-In . SVG Version: 6.00 Build 0)  -->
<svg version="1.1" id="Layer_1" xmlns="http://www.w3.org/2000/svg" xmlns:xlink="http://www.w3.org/1999/xlink" x="0px" y="0px"
	 viewBox="0 0 451.2 451.2" style="enable-background:new 0 0 451.2 451.2;" xml:space="preserve">
<path style="fill:#3F3D38;" d="M172.843,84c-0.8,7.2-8,12-15.2,11.2h-2.4c-7.2-1.6-12-8-11.2-15.2l2.4-15.2c1.6-7.2,8-12,15.2-11.2
	h2.4c7.2,1.6,12,8,11.2,15.2L172.843,84z"/>
<path style="fill:#23211E;" d="M164.843,53.6c7.2,1.6,12,8,11.2,15.2l-2.4,15.2c-0.8,7.2-8,12-15.2,11.2h-2.4
	c-7.2-1.6-12-8-11.2-15.2"/>
<path style="fill:#999588;" d="M212.843,82.4c-0.8,2.4-3.2,4-5.6,4l-35.2-5.6c-2.4-0.8-4-3.2-4-5.6l0,0c0.8-2.4,3.2-4,5.6-4
	l35.2,5.6C211.243,77.6,212.843,80,212.843,82.4L212.843,82.4z"/>
<path style="fill:#7F7B6E;" d="M212.843,82.4L212.843,82.4c-0.8,2.4-3.2,4-5.6,4l-35.2-5.6c-2.4-0.8-4-3.2-4-5.6l0,0"/>
<path style="fill:#3F3D38;" d="M162.443,161.6c-1.6,7.2-8,12-15.2,11.2h-2.4c-7.2-1.6-12-8-11.2-15.2l2.4-15.2
	c1.6-7.2,8-12,15.2-11.2h2.4c7.2,0.8,12,8,11.2,15.2L162.443,161.6z"/>
<path style="fill:#23211E;" d="M154.443,131.2c7.2,0.8,12,8,11.2,15.2l-3.2,15.2c-1.6,7.2-8,12-15.2,11.2h-2.4
	c-7.2-1.6-12-8-11.2-15.2"/>
<path style="fill:#999588;" d="M201.643,160c-0.8,2.4-3.2,4-5.6,4l-35.2-5.6c-2.4-0.8-4-3.2-4-5.6l0,0c0.8-2.4,3.2-4,5.6-4l35.2,6.4
	C200.043,155.2,202.443,157.6,201.643,160L201.643,160z"/>
<path style="fill:#7F7B6E;" d="M201.643,160L201.643,160c-0.8,2.4-3.2,4-5.6,4l-35.2-5.6c-2.4-0.8-4-3.2-4-5.6l0,0"/>
<path style="fill:#3F3D38;" d="M151.243,239.2c-1.6,7.2-8,12-15.2,11.2h-2.4c-7.2-1.6-12-8-11.2-15.2l2.4-15.2
	c1.6-7.2,8-12,15.2-11.2h2.4c7.2,1.6,12,8,11.2,15.2L151.243,239.2z"/>
<path style="fill:#23211E;" d="M143.243,208.8c7.2,1.6,12,8,11.2,15.2l-2.4,15.2c-1.6,7.2-8,12-15.2,11.2h-2.4
	c-7.2-1.6-12-8-11.2-15.2"/>
<path style="fill:#999588;" d="M190.443,237.6c-0.8,2.4-3.2,4-5.6,4l-35.2-5.6c-2.4-0.8-4-3.2-4-5.6l0,0c0.8-2.4,3.2-4,5.6-4
	l35.2,6.4C189.643,232.8,191.243,235.2,190.443,237.6L190.443,237.6z"/>
<path style="fill:#7F7B6E;" d="M190.443,237.6L190.443,237.6c-0.8,2.4-3.2,4-5.6,4l-35.2-5.6c-2.4-0.8-4-3.2-4-5.6l0,0"/>
<path style="fill:#3F3D38;" d="M137.643,315.2c-1.6,7.2-8,12-15.2,11.2h-2.4c-7.2-1.6-12-8-11.2-15.2l2.4-15.2
	c1.6-7.2,8-12,15.2-11.2h2.4c7.2,1.6,12,8,11.2,15.2L137.643,315.2z"/>
<path style="fill:#23211E;" d="M129.643,284.8c7.2,1.6,12,8,11.2,15.2l-3.2,15.2c-1.6,7.2-8,12-15.2,11.2h-2.4
	c-7.2-1.6-12-8-11.2-15.2"/>
<path style="fill:#999588;" d="M177.643,314.4c-0.8,2.4-3.2,4-5.6,4l-35.2-6.4c-2.4-0.8-4-3.2-4-5.6l0,0c0.8-2.4,3.2-4,5.6-4
	l35.2,5.6C176.043,308.8,177.643,311.2,177.643,314.4L177.643,314.4z"/>
<path style="fill:#7F7B6E;" d="M177.643,314.4L177.643,314.4c-0.8,2.4-3.2,4-5.6,4l-35.2-6.4c-2.4-0.8-4-3.2-4-5.6l0,0"/>
<path style="fill:#93780A;" d="M304.843,120.8c15.2-11.2,24.8-29.6,24.8-50.4c0-34.4-28-62.4-62.4-62.4c-30.4,0-56,21.6-61.6,50.4
	c-0.8,1.6-1.6,4-1.6,5.6l-42.4,270.4c0,8,6.4,14.4,14.4,14.4h152c8,0,14.4-6.4,14.4-14.4L304.843,120.8z"/>
<path style="fill:#BFA125;" d="M304.843,112.8c15.2-11.2,24.8-29.6,24.8-50.4c0-34.4-28-62.4-62.4-62.4c-30.4,0-56,21.6-61.6,50.4
	c-0.8,1.6-1.6,4-1.6,5.6l-42.4,270.4c0,8,6.4,14.4,14.4,14.4h152c8,0,14.4-6.4,14.4-14.4L304.843,112.8z"/>
<path style="fill:#AA8D11;" d="M327.243,340.8c8,0,14.4-6.4,14.4-14.4l-36.8-213.6c15.2-11.2,24.8-29.6,24.8-50.4
	c0-34.4-28-62.4-62.4-62.4c-30.4,0-56,21.6-61.6,50.4c-0.8,1.6-1.6,4-1.6,5.6"/>
<path style="opacity:0.3;fill:#848484;enable-background:new    ;" d="M255.243,87.2c-1.6,7.2-8,11.2-15.2,9.6
	c-7.2-1.6-11.2-8-9.6-15.2s8-11.2,15.2-9.6S256.843,80,255.243,87.2z"/>
<path style="fill:#CCC7B4;" d="M256.843,82.4c-1.6,7.2-8,11.2-15.2,9.6s-11.2-8-9.6-15.2s8-11.2,15.2-9.6
	C253.643,68.8,257.643,75.2,256.843,82.4z"/>
<path style="fill:#B2AB96;" d="M254.443,72.8c4,5.6,2.4,13.6-4,17.6c-5.6,4-13.6,2.4-17.6-4"/>
<path style="opacity:0.3;fill:#848484;enable-background:new    ;" d="M242.443,158.4c-1.6,7.2-8,11.2-15.2,9.6
	c-7.2-1.6-11.2-8-9.6-15.2c1.6-7.2,8-11.2,15.2-9.6S244.043,152,242.443,158.4z"/>
<path style="fill:#CCC7B4;" d="M244.043,153.6c-1.6,7.2-8,11.2-15.2,9.6c-7.2-1.6-11.2-8-9.6-15.2c1.6-7.2,8-11.2,15.2-9.6
	S245.643,146.4,244.043,153.6z"/>
<path style="fill:#B2AB96;" d="M242.443,144c4,5.6,2.4,13.6-4,17.6c-5.6,4-13.6,2.4-17.6-4"/>
<path style="opacity:0.3;fill:#848484;enable-background:new    ;" d="M229.643,230.4c-1.6,7.2-8,11.2-15.2,9.6s-11.2-8-9.6-15.2
	c1.6-7.2,8-11.2,15.2-9.6C227.243,216.8,231.243,223.2,229.643,230.4z"/>
<path style="fill:#CCC7B4;" d="M231.243,224.8c-1.6,7.2-8,11.2-15.2,9.6s-11.2-8-9.6-15.2c1.6-7.2,8-11.2,15.2-9.6
	C228.043,211.2,232.843,218.4,231.243,224.8z"/>
<path style="fill:#B2AB96;" d="M228.843,215.2c4,5.6,2.4,13.6-4,17.6c-5.6,4-13.6,2.4-17.6-4"/>
<path style="opacity:0.3;fill:#848484;enable-background:new    ;" d="M220.043,305.6c-1.6,7.2-8,11.2-15.2,9.6s-11.2-8-9.6-15.2
	c1.6-7.2,8-11.2,15.2-9.6C216.843,292,220.843,299.2,220.043,305.6z"/>
<path style="fill:#CCC7B4;" d="M220.843,300.8c-1.6,7.2-8,11.2-15.2,9.6s-11.2-8-9.6-15.2c1.6-7.2,8-11.2,15.2-9.6
	C217.643,287.2,222.443,293.6,220.843,300.8z"/>
<path style="fill:#B2AB96;" d="M219.243,291.2c4,5.6,2.4,13.6-4,17.6c-5.6,4-13.6,2.4-17.6-4"/>
<rect x="185.643" y="343.2" style="fill:#846040;" width="131.2" height="108"/>
<rect x="192.843" y="343.2" style="fill:#6B5034;" width="116.8" height="108"/>
<path style="fill:#AF9043;" d="M307.243,418.4c0,3.2-2.4,5.6-5.6,5.6h-100.8c-3.2,0-5.6-2.4-5.6-5.6l0,0c0-3.2,2.4-5.6,5.6-5.6
	h100.8C304.843,413.6,307.243,416,307.243,418.4L307.243,418.4z"/>
<g>
	<path style="fill:#FFFBEE;" d="M212.043,448c0,1.6-1.6,3.2-3.2,3.2l0,0c-1.6,0-3.2-1.6-3.2-3.2V344c0-1.6,1.6-3.2,3.2-3.2l0,0
		c1.6,0,3.2,1.6,3.2,3.2V448z"/>
	<path style="fill:#FFFBEE;" d="M240.843,448c0,1.6-1.6,3.2-3.2,3.2l0,0c-1.6,0-3.2-1.6-3.2-3.2V344c0-1.6,1.6-3.2,3.2-3.2l0,0
		c1.6,0,3.2,1.6,3.2,3.2V448z"/>
	<path style="fill:#FFFBEE;" d="M268.843,448c0,1.6-1.6,3.2-3.2,3.2l0,0c-1.6,0-3.2-1.6-3.2-3.2V344c0-1.6,1.6-3.2,3.2-3.2l0,0
		c1.6,0,3.2,1.6,3.2,3.2V448z"/>
	<path style="fill:#FFFBEE;" d="M297.643,448c0,1.6-1.6,3.2-3.2,3.2l0,0c-1.6,0-3.2-1.6-3.2-3.2V344c0-1.6,1.6-3.2,3.2-3.2l0,0
		c1.6,0,3.2,1.6,3.2,3.2V448z"/>
</g>
<circle style="fill:#DBC375;" cx="251.243" cy="378.4" r="4.8"/>
<path style="fill:#BAD0D3;" d="M327.243,345.6c0,3.2-2.4,6.4-6.4,6.4h-139.2c-3.2,0-6.4-2.4-6.4-6.4l0,0c0-3.2,2.4-6.4,6.4-6.4
	h139.2C324.843,339.2,327.243,342.4,327.243,345.6L327.243,345.6z"/>
<path style="fill:#9DB8BA;" d="M327.243,345.6L327.243,345.6c0,3.2-2.4,6.4-6.4,6.4h-139.2c-3.2,0-6.4-2.4-6.4-6.4l0,0"/>
<g>
</g>
<g>
</g>
<g>
</g>
<g>
</g>
<g>
</g>
<g>
</g>
<g>
</g>
<g>
</g>
<g>
</g>
<g>
</g>
<g>
</g>
<g>
</g>
<g>
</g>
<g>
</g>
<g>
</g>
</svg>
